<svg width="31" height="31" viewBox="0 0 31 31" fill="none" xmlns="http://www.w3.org/2000/svg">
<path d="M15.5 1.9375C8.01035 1.9375 1.9375 8.01035 1.9375 15.5C1.9375 22.9896 8.01035 29.0625 15.5 29.0625C22.9896 29.0625 29.0625 22.9896 29.0625 15.5C29.0625 8.01035 22.9896 1.9375 15.5 1.9375ZM22.0179 12.1608C22.027 12.3031 22.027 12.4515 22.027 12.5968C22.027 17.0409 18.6424 22.1602 12.4575 22.1602C10.5503 22.1602 8.78232 21.6062 7.29287 20.6525C7.56533 20.6828 7.82568 20.6949 8.1042 20.6949C9.67842 20.6949 11.1255 20.1621 12.2789 19.26C10.8016 19.2297 9.56035 18.2609 9.13652 16.9289C9.6542 17.0046 10.1204 17.0046 10.6532 16.8684C9.89253 16.7138 9.2088 16.3007 8.71819 15.6991C8.22759 15.0976 7.96036 14.3448 7.96191 13.5686V13.5262C8.40693 13.7774 8.93066 13.9318 9.47861 13.953C9.01798 13.646 8.64021 13.2301 8.37881 12.7422C8.11741 12.2542 7.98045 11.7093 7.98008 11.1558C7.98008 10.5291 8.14356 9.95693 8.43721 9.46045C9.28154 10.4998 10.3351 11.3499 11.5295 11.9555C12.7239 12.561 14.0324 12.9085 15.3698 12.9752C14.8945 10.6896 16.602 8.83984 18.6545 8.83984C19.6232 8.83984 20.4951 9.24551 21.1097 9.89941C21.8695 9.75713 22.5961 9.47256 23.2439 9.09111C22.9927 9.86914 22.4659 10.5261 21.7666 10.9408C22.4447 10.8682 23.0986 10.6805 23.7041 10.4171C23.247 11.0892 22.6748 11.6855 22.0179 12.1608V12.1608Z" fill="#CDCDCD"/>
</svg>
